<?xml version="1.0" encoding="UTF-8"?>
<svg width="1200pt" height="1200pt" version="1.1" viewBox="0 0 1200 1200" xmlns="http://www.w3.org/2000/svg">
 <g>
  <path d="m848.33 131.65c0 39.57-111.18 71.652-248.33 71.652s-248.33-32.082-248.33-71.652c0-39.574 111.18-71.652 248.33-71.652s248.33 32.078 248.33 71.652"/>
  <path d="m600.01 340.44c-137.17 0-248.33-32.09-248.33-71.676 0-0.39453 0.19141-0.80469 0.21484-1.2227h-0.21484v92.664h0.21484c2.293 39 112.38 70.43 248.11 70.43 135.72 0 245.81-31.43 248.11-70.43h0.22656v-91.344c-0.16797 39.562-111.31 71.578-248.34 71.578z"/>
  <path d="m848.33 268.68v-1.1289h-0.20312c0.046875 0.38672 0.20312 0.75781 0.20312 1.1289z"/>
  <path d="m848.33 379.87v-1.1289h-0.20312c0.046875 0.375 0.20312 0.75781 0.20312 1.1289z"/>
  <path d="m848.33 491.06v-1.1289h-0.20312c0.046875 0.38672 0.20312 0.75781 0.20312 1.1289z"/>
  <path d="m600.01 226.79c-137.17 0-248.33-32.09-248.33-71.688 0-0.42187 0.19141-0.80469 0.21484-1.2461h-0.21484v92.676h0.21484c2.293 38.988 112.38 70.453 248.11 70.453 135.72 0 245.81-31.465 248.11-70.453h0.22656v-91.32c-0.16797 39.523-111.31 71.578-248.34 71.578z"/>
  <path d="m848.33 155.03v-1.1641h-0.20312c0.046875 0.41016 0.20312 0.79297 0.20312 1.1641z"/>
  <path d="m1025.8 587.33h-237.62c10.895 9.2656 18.012 22.871 18.012 38.242v16.945h183.74c6.8633 0 12.422 5.543 12.422 12.395 0 6.8633-5.5547 12.422-12.422 12.422h-183.74v9.6719h183.74c6.8633 0 12.422 5.5664 12.422 12.395 0 6.8516-5.5547 12.434-12.422 12.434h-183.74v9.6719h183.74c6.8633 0 12.422 5.543 12.422 12.395 0 6.8633-5.5547 12.422-12.422 12.422h-183.74v34.031h230.65v22.066l-230.65 0.003906v46.906h230.65v22.066h-230.65v33.574h183.74c6.8633 0 12.422 5.5781 12.422 12.434 0 6.8633-5.5547 12.406-12.422 12.406l-183.74 0.003906v9.6602h183.74c6.8633 0 12.422 5.5664 12.422 12.422 0 6.875-5.5547 12.422-12.422 12.422l-183.74-0.003906v9.6719h183.74c6.8633 0 12.422 5.543 12.422 12.395 0 6.8633-5.5547 12.406-12.422 12.406l-183.74 0.003906v55.668h219.61c18.277 0 33.121-14.867 33.121-33.133l-0.003906-390.88c0-18.277-14.832-33.121-33.117-33.121zm-102.32 238.67c-6.0977 0-11.027-4.9336-11.027-11.039 0-6.0977 4.9336-11.039 11.027-11.039 6.1211 0 11.039 4.9453 11.039 11.039 0 6.1055-4.9219 11.039-11.039 11.039zm44.172 0c-6.0859 0-11.039-4.9336-11.039-11.039 0-6.0977 4.957-11.039 11.039-11.039 6.1094 0 11.039 4.9453 11.039 11.039 0 6.1055-4.9336 11.039-11.039 11.039z"/>
  <path d="m755.73 624.02h-311.46c-20.617 0-37.391 16.754-37.391 37.355v441.25c0 20.594 16.777 37.355 37.391 37.355h311.45c20.629 0 37.367-16.766 37.367-37.355v-441.25c0.011719-20.602-16.742-37.355-37.359-37.355zm-311.46 24.887h311.45c6.8867 0 12.48 5.6055 12.48 12.469v169.22l-336.4 0.003907v-169.23c0-6.8633 5.6016-12.469 12.469-12.469zm-12.469 206.62h336.39v52.957h-336.39zm323.93 259.55h-311.46c-6.8633 0-12.469-5.5938-12.469-12.434v-169.26h336.39v169.25c0.011719 6.8555-5.5781 12.445-12.469 12.445z"/>
  <path d="m484.75 714.34h230.5c7.7266 0 14.016-6.2656 14.016-14.039 0-7.7383-6.2891-14.004-14.016-14.004h-230.5c-7.7539 0-14.027 6.2656-14.027 14.004 0.007813 7.7734 6.2852 14.039 14.027 14.039z"/>
  <path d="m484.75 753.25h230.5c7.7266 0 14.016-6.2891 14.016-13.992 0-7.7383-6.2891-14.027-14.016-14.027l-230.5-0.003906c-7.7539 0-14.027 6.2891-14.027 14.027 0.007813 7.6953 6.2852 13.996 14.027 13.996z"/>
  <path d="m484.75 792.2h230.5c7.7266 0 14.016-6.2891 14.016-14.027 0-7.7539-6.2891-14.016-14.016-14.016h-230.5c-7.7539 0-14.027 6.2656-14.027 14.016 0.007813 7.7266 6.2852 14.027 14.027 14.027z"/>
  <path d="m715.25 971.28h-230.49c-7.7539 0-14.027 6.2891-14.027 14.039 0 7.7383 6.2773 14.004 14.027 14.004h230.5c7.7266 0 14.016-6.2656 14.016-14.004 0-7.7422-6.2891-14.039-14.02-14.039z"/>
  <path d="m715.25 1010.2h-230.49c-7.7539 0-14.027 6.3008-14.027 14.039s6.2773 14.027 14.027 14.027h230.5c7.7266 0 14.016-6.2891 14.016-14.027s-6.2891-14.039-14.02-14.039z"/>
  <path d="m715.25 1049.2h-230.49c-7.7539 0-14.027 6.2891-14.027 14.004 0 7.7383 6.2773 14.016 14.027 14.016h230.5c7.7266 0 14.016-6.2773 14.016-14.016 0-7.7148-6.2891-14.004-14.02-14.004z"/>
  <path d="m412.87 607.87c9.2539-5.4375 19.895-8.7969 31.402-8.7969h311.45c11.52 0 22.152 3.3594 31.391 8.7969-1.4531-2.8672-3.6719-6-6.457-9.3008l-44.449-49.656c-12.254-12.648-13.789-17.316-30.312-17.844h-211.82c-16.512 0.52734-18.07 5.207-30.312 17.844l-44.449 49.656c-2.7695 3.3008-4.9648 6.4336-6.4414 9.3008z"/>
  <path d="m702.54 880.97c0 6.8867-5.582 12.469-12.469 12.469-6.8828 0-12.465-5.582-12.465-12.469s5.582-12.469 12.465-12.469c6.8867 0 12.469 5.582 12.469 12.469"/>
  <path d="m652.7 880.97c0 6.8867-5.582 12.469-12.469 12.469-6.8828 0-12.465-5.582-12.465-12.469s5.582-12.469 12.465-12.469c6.8867 0 12.469 5.582 12.469 12.469"/>
  <path d="m870.25 565.25h155.51c10.223 0 19.621 2.9883 27.816 7.8008-1.2969-2.5312-3.2539-5.3164-5.7344-8.2578l-39.371-43.969c-10.836-11.207-12.227-15.359-26.855-15.805h-187.62c-14.629 0.44531-16.008 4.6094-26.844 15.805l-19.297 21.551 20.473 22.859 101.93 0.003906z"/>
  <path d="m174.24 587.33c-18.254 0-33.121 14.832-33.121 33.121v390.88c0 18.254 14.867 33.133 33.121 33.133h219.62v-55.668h-183.75c-6.8516 0-12.422-5.543-12.422-12.406 0-6.8516 5.5664-12.395 12.422-12.395h183.74v-9.6719l-183.74-0.003906c-6.8516 0-12.422-5.543-12.422-12.422 0-6.8516 5.5664-12.422 12.422-12.422h183.74v-9.6602l-183.74 0.003906c-6.8516 0-12.422-5.543-12.422-12.406 0-6.8516 5.5664-12.434 12.422-12.434h183.74v-33.574l-230.65-0.003907v-22.066h230.66v-13.727c-0.63672 0.14453-1.2109 0.38281-1.8477 0.38281-6.1211 0-11.051-4.9336-11.051-11.039 0-6.0977 4.9336-11.039 11.051-11.039 0.64844 0 1.2227 0.28906 1.8477 0.38281v-11.879l-230.66-0.003906v-22.066h230.66v-34.02h-183.75c-6.8516 0-12.422-5.5547-12.422-12.422 0-6.8516 5.5664-12.395 12.422-12.395h183.74v-9.6719h-183.74c-6.8516 0-12.422-5.5781-12.422-12.434 0-6.8281 5.5664-12.395 12.422-12.395h183.74v-9.6719h-183.74c-6.8516 0-12.422-5.5547-12.422-12.422 0-6.8516 5.5664-12.395 12.422-12.395h183.74v-16.945c0-15.359 7.1172-28.969 18.012-38.242zm173.59 216.59c6.0859 0 11.039 4.9453 11.039 11.039 0 6.1094-4.957 11.039-11.039 11.039-6.0977 0-11.039-4.9336-11.039-11.039 0-6.0938 4.9531-11.039 11.039-11.039z"/>
  <path d="m294.64 565.25h137.05l20.473-22.859-19.273-21.551c-10.836-11.207-12.254-15.359-26.867-15.805h-187.66c-14.605 0.44531-16.008 4.6094-26.844 15.805l-39.359 43.969c-2.4844 2.9297-4.4531 5.7227-5.7461 8.2578 8.207-4.8125 17.641-7.8008 27.816-7.8008h120.41z"/>
  <path d="m407.12 469.34c25.297 0.78125 36.551 10.727 47.641 22.668 1.1289 1.1992 2.3398 2.5312 3.7422 3.9844l0.98438 1.043 4.4766 4.9922c7.4531-3.7812 16.523-6.2539 29.039-6.6367l1.0938-0.011719 212.9 0.011719c12.516 0.38281 21.625 2.8555 29.074 6.6602l5.4102-6.0469c1.4141-1.4648 2.6523-2.7852 3.7695-3.9961 11.074-11.93 22.309-21.875 47.617-22.668l1.1172-0.011719h54.336v-89.293c-0.15625 39.562-111.29 71.594-248.32 71.594-137.17 0-248.33-32.074-248.33-71.664 0-0.40625 0.19141-0.81641 0.21484-1.2227h-0.21484v90.59z"/>
 </g>
</svg>
