<?xml version="1.0" encoding="UTF-8"?>
<svg width="1200pt" height="1200pt" version="1.1" viewBox="0 0 1200 1200" xmlns="http://www.w3.org/2000/svg">
 <g>
  <path d="m598.95 827.11c-6.3477 0.007813-12.434 2.5312-16.922 7.0234-4.4883 4.4922-7.0078 10.582-7.0078 16.93 1.2656 31.758 46.594 31.734 47.883 0-0.007813-6.3516-2.5312-12.441-7.0234-16.93-4.4883-4.4922-10.578-7.0156-16.93-7.0234z"/>
  <path d="m182.6 928.55h295.31v43.688c0 6.375-8.625 21.68-16.406 31.5l-37.195 52.734c-14.508 20.18 0.39844 49.102 25.336 48.867h298.52c24.82 0.23437 39.844-28.617 25.359-48.844l-37.125-52.734c-6.75-8.625-16.406-24.445-16.406-31.5v-43.711h295.31c17.348-0.042969 33.973-6.9531 46.238-19.223 12.27-12.266 19.18-28.891 19.223-46.238v-498.52c-0.050782-17.34-6.9609-33.957-19.223-46.215-12.258-12.262-28.875-19.172-46.215-19.223h-172.52v-92.414c0.003906-8.293-2.4688-16.395-7.1055-23.27s-11.223-12.207-18.91-15.309c-144.52-58.992-291.12-58.992-435.7 0-7.6914 3.1016-14.277 8.4297-18.914 15.305-4.6367 6.875-7.1094 14.98-7.1016 23.273v92.367h-172.52c-17.355 0.011718-33.996 6.9219-46.258 19.211-12.262 12.285-19.133 28.941-19.109 46.297v422.91 75.703c0.074219 17.32 6.9922 33.906 19.246 46.148 12.254 12.238 28.848 19.141 46.168 19.195zm531 91.664 36.938 52.477c0.60938 0.87891 0.67969 2.0195 0.1875 2.9688-0.48828 0.94531-1.4648 1.543-2.5312 1.5547h-298.45c-1.0664-0.011719-2.043-0.60938-2.5312-1.5547-0.49219-0.94922-0.42188-2.0898 0.1875-2.9688l37.031-52.477c4.0781-5.2734 21.633-29.062 21.656-47.953v-43.711h185.86v43.734c0 18.867 17.555 42.562 21.656 47.93zm301.71-119.79h-832.71c-9.8906-0.019531-19.371-3.9609-26.363-10.957-6.9922-7-10.918-16.488-10.926-26.379v-61.406h907.34v61.406c-0.042969 9.8906-3.9922 19.359-10.984 26.352-6.9922 6.9922-16.461 10.941-26.352 10.984zm-623.58-706.2c138.19-56.391 276.34-56.391 414.45 0 5.1328 2.0508 8.5 7.0156 8.5078 12.539v131.62c0.039062 68.023-19.883 134.56-57.301 191.36-37.418 56.809-90.68 101.38-153.19 128.21-3.3477 1.4297-7.1289 1.4297-10.477 0-62.531-26.828-115.81-71.422-153.23-128.25-37.422-56.832-57.34-123.39-57.281-191.44v-131.51c0.019531-5.5273 3.3945-10.492 8.5312-12.539zm-246.42 170.37c0.042969-9.8945 3.9922-19.367 10.992-26.359 6.9961-6.9961 16.473-10.941 26.367-10.977h172.41c-2.1406 75.375 18.402 149.65 58.973 213.21 40.566 63.562 99.289 113.47 168.56 143.27 10.441 4.4688 22.254 4.4688 32.695 0 69.266-29.797 127.98-79.711 168.55-143.27 40.562-63.559 61.105-137.84 58.957-213.21h172.5c9.8906 0.011719 19.375 3.9492 26.371 10.941 6.9922 6.9961 10.93 16.48 10.941 26.371v408.98h-907.31z"/>
  <path d="m584.58 620.04c9.0391 4.5469 19.695 4.5469 28.734 0 51.703-26.012 95.137-65.914 125.43-115.23 30.293-49.316 46.246-106.1 46.066-163.98v-98.695c0.007812-6.5586-2.0156-12.961-5.793-18.324-3.7773-5.3633-9.1211-9.4258-15.301-11.629-110.39-38.742-219.12-38.742-329.41 0.046874-6.1758 2.1992-11.523 6.2578-15.301 11.617-3.7734 5.3594-5.8008 11.754-5.793 18.312v98.602c-0.19922 57.875 15.73 114.66 46 163.99 30.27 49.332 73.684 89.254 125.38 115.29zm-143.34-377.88c-0.015625-1.5156 0.92188-2.875 2.3438-3.3984 104.32-36.586 206.39-36.609 310.69 0 1.418 0.53906 2.3555 1.9023 2.3438 3.4219v98.672c-0.23438 107.16-60.938 211.05-159.38 254.16-47.055-23.695-86.582-60.027-114.14-104.93-27.562-44.898-42.07-96.59-41.902-149.27z"/>
  <path d="m564.26 481.24c-0.16406 4.457 1.4883 8.7852 4.5859 11.996 3.0938 3.2109 7.3633 5.0234 11.82 5.0195h36.609c4.457 0.003907 8.7266-1.8086 11.82-5.0195 3.0977-3.2109 4.75-7.5391 4.5859-11.996l-3.2109-73.242c30.188-29.602 6.1406-81.398-36.516-76.945-37.805 4.1016-53.414 50.977-26.766 76.945z"/>
  <path d="m222.66 586.97h123.98c18.586-0.63281 18.75-27.469 0-28.125h-123.98c-18.562 0.63281-18.633 27.469 0 28.125z"/>
  <path d="m433.8 649.22h-211.15c-7.7656 0-14.062 6.2969-14.062 14.062s6.2969 14.062 14.062 14.062h211.12c18.562-0.70312 18.68-27.539 0.023438-28.125z"/>
  <path d="m975.19 558.84h-123.96c-18.586 0.63281-18.75 27.469 0 28.125h123.96c18.562-0.63281 18.562-27.469 0-28.125z"/>
  <path d="m975.19 649.22h-211.12c-7.7656 0-14.062 6.2969-14.062 14.062s6.2969 14.062 14.062 14.062h211.12c18.562-0.70312 18.562-27.539 0-28.125z"/>
 </g>
</svg>
