<?xml version="1.0" encoding="UTF-8"?>
<svg width="1200pt" height="1200pt" version="1.1" viewBox="0 0 1200 1200" xmlns="http://www.w3.org/2000/svg">
 <path d="m603.75 30.945c-180 0-287.81 129.36-291.56 344.99-18.75 4.6875-34.703 16.887-43.141 34.699-11.25 25.312-8.4297 57.188 7.5078 79.688 13.125 18.75 34.68 29.055 58.117 29.992 47.812 128.44 105.01 197.81 156.57 234.38v24.371h0.93359l-192.19 91.883c-37.5 17.812-60.938 56.254-60.938 97.504v194.05c0 7.5 6.5625 14.062 14.062 14.062h693.75c7.5 0 14.062-6.5625 14.062-14.062v-194.05c0-41.25-24.375-79.691-60.938-97.504l-192.19-92.816v-17.816c53.438-34.688 115.3-104.06 165.93-240 24.375 0 45.012-11.242 58.137-29.992 16.875-22.5 19.676-55.312 7.4883-79.688-8.4375-17.812-23.434-30.012-43.121-34.699-3.75-216.56-112.49-344.99-292.49-344.99zm0.93359 28.125c163.12 0 260.62 119.05 264.37 317.8-114.38 30-208.12-19.672-291.56-64.672-65.625-34.688-121.88-64.691-173.44-45.941-22.5 8.4375-42.191 25.309-60.004 52.496 19.688-163.12 114.38-259.68 260.63-259.68zm-166.55 231.08c35.844-0.40234 78.246 22.387 126.23 48.285 65.625 34.688 143.45 76.887 235.33 76.887 21.562 0 44.988-2.8164 68.426-8.4414-1.875 30-8.4414 69.367-17.816 95.617-85.312 238.12-200.62 264.39-245.62 264.39-45.938-0.9375-160.3-27.199-245.62-264.39-9.375-32.812-18.75-67.504-18.75-111.57 21.562-54.375 45.922-86.238 74.047-96.551 7.5586-2.8125 15.496-4.1367 23.766-4.2305zm-125.94 114.84c1.875 32.812 7.4961 60.949 14.996 86.262-13.125-1.875-21.566-9.3828-27.191-16.883-10.312-15-13.121-35.625-5.6211-51.562 2.8125-6.5625 8.4414-13.129 17.816-17.816zm584.05 0c10.312 4.6875 15.004 12.191 17.816 17.816 7.5 15.938 5.6289 36.562-5.6211 51.562-4.6875 6.5625-13.133 14.07-26.258 16.883 7.5-27.188 12.188-60.012 14.062-86.262zm-375.93 366.58c34.688 18.75 64.688 22.484 84.375 22.484 17.812 0 44.062-2.7969 75-17.797v11.242c0 1.875-0.93359 8.4414-0.93359 13.129-6.5625 38.438-39.379 66.559-78.754 66.559-44.062 0-79.688-35.625-79.688-79.688zm-25.305 37.5c10.312 49.688 53.426 86.242 105.93 86.242 50.625 0 94.699-35.617 105.01-86.242l17.797 8.4219c-13.125 56.25-63.746 96.57-122.81 96.57-58.125 0-109.68-41.258-122.81-96.57zm-47.828 22.484v121.88c-48.75 6.5625-86.242 47.812-86.242 98.438v92.816c0 0.9375-0.003906 2.8164 0.93359 3.7539h-94.684v-179.99c0-30 17.82-59.074 45.008-72.199zm307.51 0.95312 133.12 63.738c27.188 13.125 45.008 41.262 45.008 72.199v179.99h-93.75v-79.688c0-7.5-6.5625-14.062-14.062-14.062s-14.062 6.5625-14.062 14.062v79.688h-251.26v-96.57c0-49.688-36.562-90.938-84.375-98.438v-75.934c28.125 38.438 74.07 63.758 124.7 63.758 51.562 0 98.438-25.312 126.56-65.625v131.25h-32.812c-7.5 0-14.062 6.5625-14.062 14.062s6.5625 14.062 14.062 14.062h93.75c7.5 0 14.062-6.5625 14.062-14.062s-6.5625-14.062-14.062-14.062h-32.812zm-294.38 148.11c39.375 0 71.246 31.871 71.246 71.246v96.57h-143.43c0-0.9375 0.93359-2.8164 0.93359-3.7539v-92.816c0-39.375 31.871-71.246 71.246-71.246z"/>
</svg>
