<?xml version="1.0" encoding="UTF-8"?>
<svg width="1200pt" height="1200pt" version="1.1" viewBox="0 0 1200 1200" xmlns="http://www.w3.org/2000/svg">
 <g fill-rule="evenodd">
  <path d="m81.879 1050.6c-6.3867 0-11.543-5.1797-11.543-11.562v-874.8c0-6.3867 5.1523-11.562 11.539-11.562 6.4102-0.003907 11.562 5.1797 11.562 11.562v874.8c0 6.3867-5.1562 11.566-11.562 11.566z"/>
  <path d="m1118.1 1050.6h-1036.2c-6.3867 0-11.566-5.1797-11.566-11.562 0.003906-6.3867 5.1797-11.562 11.566-11.562h1036.2c6.3867 0 11.562 5.1797 11.562 11.566 0 6.3828-5.1797 11.566-11.562 11.562z"/>
  <path d="m301.82 1050.6c-6.3789 0-11.566-5.1797-11.566-11.562l0.003906-309.23h-59.559v309.23c0 6.3867-5.1797 11.566-11.566 11.566-6.3828 0-11.562-5.1797-11.562-11.566l0.003907-320.79c0-6.3867 5.1758-11.566 11.559-11.566h82.688c6.3867 0 11.562 5.1797 11.562 11.566l0.003907 320.79c0 6.3867-5.1836 11.566-11.57 11.566z"/>
  <path d="m480.4 1050.6c-6.3867 0-11.57-5.1797-11.57-11.562v-408.44h-59.551v408.44c0 6.3867-5.1602 11.566-11.57 11.566-6.3828 0-11.562-5.1797-11.562-11.566l0.003907-420.01c0-6.3828 5.1758-11.562 11.562-11.562h82.691c6.3789 0 11.559 5.1797 11.559 11.562l0.003906 420c0 6.3867-5.1836 11.566-11.562 11.566z"/>
  <path d="m658.99 1050.6c-6.4062 0-11.566-5.1797-11.566-11.562l0.003907-335.68h-59.559v335.68c0 6.3867-5.1797 11.566-11.566 11.566-6.3828 0-11.562-5.1797-11.562-11.566l0.003906-347.25c0-6.3867 5.1758-11.562 11.559-11.562h82.688c6.3867 0 11.562 5.1797 11.562 11.566l0.003906 347.24c0 6.3867-5.1836 11.566-11.566 11.566z"/>
  <path d="m837.57 1050.6c-6.3789 0-11.566-5.1797-11.566-11.562l0.003906-474.5h-59.559v474.5c0 6.3867-5.1797 11.566-11.566 11.566-6.3828 0-11.562-5.1797-11.562-11.566l0.003906-486.07c0-6.3867 5.1758-11.562 11.559-11.562l82.688-0.003906c6.3867 0 11.566 5.1836 11.566 11.566l0.003907 486.07c0 6.3867-5.1836 11.566-11.57 11.566z"/>
  <path d="m1016.1 1050.6c-6.3867 0-11.57-5.1797-11.57-11.562v-646.48h-59.531v646.48c0 6.3867-5.1797 11.566-11.566 11.566-6.3828 0-11.562-5.1797-11.562-11.566v-658.04c0-6.4062 5.1797-11.562 11.562-11.562l82.664-0.003906c6.4062 0 11.559 5.1602 11.559 11.566l0.003907 658.04c0 6.3867-5.1602 11.566-11.562 11.566z"/>
  <path d="m229.86 626.67 16.359 16.336 172.04-172.05c4.5312-4.5273 11.855-4.5273 16.359 0.003907l165.45 165.44 390.57-390.57c2.168-2.168 5.1289-3.3945 8.1875-3.3945 3.0664 0 6 1.2266 8.168 3.3984l13.762 13.73 22.02-82.227-82.23 22.047 13.758 13.73c2.168 2.168 3.3672 5.1094 3.3672 8.1914 0.003906 3.0586-1.2031 6-3.375 8.168l-366.04 366.04c-4.5273 4.5039-11.855 4.5078-16.359 0l-165.44-165.45-196.6 196.59zm16.359 44.258c-3.0859 0-6.0273-1.2031-8.1953-3.3711l-32.695-32.719c-4.5273-4.5039-4.5312-11.828 0-16.355l212.93-212.96c4.5312-4.5039 11.855-4.5039 16.359 0l165.45 165.47 349.68-349.68-19.73-19.734c-2.918-2.9375-4.0508-7.1758-2.9922-11.176 1.0859-4.0039 4.1914-7.1055 8.1914-8.168l120.92-32.406c4-1.0859 8.2422 0.074219 11.18 2.9883 2.9219 2.9141 4.0469 7.1797 2.9883 11.156l-32.402 120.94c-1.0625 3.9766-4.1953 7.1094-8.168 8.168-3.9922 1.082-8.2617-0.074219-11.18-2.9883l-19.73-19.734-390.57 390.57c-2.168 2.168-5.1094 3.3984-8.1914 3.3984-3.0547-0.003907-5.9961-1.2305-8.168-3.3984l-165.44-165.45-172.07 172.07c-2.168 2.168-5.1094 3.375-8.1641 3.375z"/>
 </g>
</svg>
