<?xml version="1.0" encoding="UTF-8"?>
<svg width="1200pt" height="1200pt" version="1.1" viewBox="0 0 1200 1200" xmlns="http://www.w3.org/2000/svg">
 <g fill-rule="evenodd">
  <path d="m185.98 425.09 48.707 123.98 132.84 8.8555-101.84 88.562 30.996 128.41-110.7-70.848-115.13 70.848 30.996-128.41-101.84-88.562 132.84-8.8555zm0 48.707-39.852 92.988-97.418 8.8555 75.277 61.992-22.141 97.418 84.133-53.137 84.133 53.137-26.566-97.418 75.277-61.992-97.418-8.8555z"/>
  <path d="m597.79 425.09 53.137 123.98 132.84 8.8555-101.84 88.562 30.996 128.41-115.13-70.848-110.7 70.848 30.996-128.41-101.84-88.562 132.84-8.8555zm0 48.707-35.426 92.988-97.418 8.8555 75.277 61.992-26.566 97.418 84.133-53.137 84.133 53.137-22.141-97.418 75.277-61.992-97.418-8.8555z"/>
  <path d="m1014 425.09 48.707 123.98 137.27 8.8555-106.27 88.562 35.426 128.41-115.13-70.848-115.13 70.848 35.426-128.41-106.27-88.562 137.27-8.8555zm0 48.707-35.426 92.988-101.84 8.8555 79.703 61.992-26.566 97.418 84.133-53.137 84.133 53.137-22.141-97.418 75.277-61.992-101.84-8.8555z"/>
 </g>
</svg>
