<?xml version="1.0" encoding="UTF-8"?>
<svg width="1200pt" height="1200pt" version="1.1" viewBox="0 0 1200 1200" xmlns="http://www.w3.org/2000/svg">
 <g>
  <path d="m1084 422.68h-270.67c-40.199 0-72.918 32.699-72.918 72.918v494.91c0 40.219 32.719 72.918 72.918 72.918h270.7c40.199 0 72.883-32.699 72.883-72.918l-0.003907-494.9c-0.019531-40.219-32.699-72.922-72.902-72.922zm39.133 567.81c0 21.602-17.57 39.148-39.133 39.148h-270.67c-21.582 0-39.148-17.551-39.148-39.148v-31.352h348.95zm0-65.082h-348.96v-429.8c0-21.602 17.57-39.188 39.148-39.188h270.7c21.562 0 39.133 17.586 39.133 39.188v429.8z"/>
  <path d="m968.49 992.81c0 10.957-8.8789 19.836-19.836 19.836s-19.836-8.8789-19.836-19.836 8.8789-19.836 19.836-19.836 19.836 8.8789 19.836 19.836"/>
  <path d="m331.37 1029.6c-6.6953 0-12.148-5.457-12.148-12.148v-21.789c0-6.6562 5.457-12.148 12.148-12.148h375.3v-33.73h-314.06l14.305-67.895h299.76v-33.77h-588.56c-22.742 0-41.23-18.488-41.23-41.23v-595.41c0-22.707 18.488-41.195 41.23-41.195h864.02c22.727 0 41.195 18.488 41.195 41.195v177.39h33.75v-177.39c0-41.305-33.617-74.926-74.945-74.926h-864.02c-41.344 0-74.98 33.617-74.98 74.926v595.39c0 41.344 33.637 75 74.98 75h254.3l-14.324 67.895h-26.719c-25.312 0-45.898 20.586-45.898 45.883v21.789c0 25.312 20.605 45.918 45.898 45.918h404.53c-9.1875-9.75-16.555-21.133-21.543-33.77l-382.99-0.003906z"/>
  <path d="m988.11 388.91v-141.05c0-25.352-20.625-45.918-45.938-45.918l-784.16-0.003906c-25.312 0-45.898 20.586-45.898 45.918l-0.003906 522.77c0 25.312 20.605 45.918 45.898 45.918h548.66v-33.77h-548.66c-6.6953 0-12.148-5.457-12.148-12.148l-0.003906-522.77c0-6.6953 5.457-12.188 12.148-12.188h784.16c6.7109 0 12.188 5.4922 12.188 12.188v141.05z"/>
 </g>
</svg>
