<?xml version="1.0" encoding="UTF-8"?>
<svg width="1200pt" height="1200pt" version="1.1" viewBox="0 0 1200 1200" xmlns="http://www.w3.org/2000/svg">
 <g>
  <path d="m490.14 764.18h-150.25c-6.5664 0-11.875 5.3164-11.875 11.875s5.3086 11.875 11.875 11.875h150.25c6.5625 0 11.875-5.3164 11.875-11.875 0.003906-6.5625-5.3086-11.875-11.875-11.875z"/>
  <path d="m490.14 676.28h-150.25c-6.5664 0-11.875 5.3164-11.875 11.875 0 6.5547 5.3086 11.875 11.875 11.875h150.25c6.5625 0 11.875-5.3164 11.875-11.875 0.003906-6.5547-5.3086-11.875-11.875-11.875z"/>
  <path d="m490.14 588.38h-55.43c-6.5625 0-11.875 5.3164-11.875 11.875 0 6.5586 5.3086 11.875 11.875 11.875h55.43c6.5625 0 11.875-5.3164 11.875-11.875 0.003906-6.5586-5.3086-11.875-11.875-11.875z"/>
  <path d="m824.41 799.78h54.617c13.336 0 24.18-10.844 24.18-24.172v-287.37c0-13.328-10.844-24.172-24.18-24.172h-54.617c-13.324 0-24.168 10.844-24.168 24.172v287.37c0 13.328 10.844 24.172 24.168 24.172zm0-311.96h54.617c0.23438 0 0.42969 0.19141 0.42969 0.42188l-0.42969 287.79-55.035-0.42188z"/>
  <path d="m574.72 799.78h54.617c13.336 0 24.18-10.844 24.18-24.172v-263.51c0-13.328-10.844-24.18-24.18-24.18h-54.617c-13.324 0-24.164 10.848-24.164 24.18l-0.003906 263.51c0 13.328 10.844 24.172 24.168 24.172zm0-288.11h54.617c0.23438 0 0.42969 0.19141 0.42969 0.42969l-0.42969 263.94-55.035-0.42188z"/>
  <path d="m949.27 799.78h54.609c13.336 0 24.18-10.844 24.18-24.172l-0.003906-233.86c0-13.328-10.844-24.172-24.18-24.172h-54.609c-13.336 0-24.18 10.844-24.18 24.172l0.003906 233.86c0 13.328 10.844 24.172 24.18 24.172zm0-258.45h54.609c0.24609 0 0.42969 0.18359 0.42969 0.42188l-0.42969 234.28-55.039-0.42188z"/>
  <path d="m699.57 799.78h54.617c13.336 0 24.18-10.844 24.18-24.172v-187.51c0-13.328-10.844-24.172-24.18-24.172h-54.617c-13.324 0-24.168 10.844-24.168 24.172v187.51c0.003906 13.328 10.844 24.172 24.168 24.172zm0-212.11h54.617c0.23438 0 0.42969 0.19141 0.42969 0.42188l-0.42969 187.93-55.035-0.42188z"/>
  <path d="m471.65 198.87v0.007812c18.234 9.1484 38.695-7.4219 33.641-27.078l-11.758-45.922c-3.5664-14-18.699-21.512-31.949-16.09l-43.891 17.938c-18.844 7.6914-19.867 34.008-1.6836 43.148l16.648 8.375-52.41 93.555-68.152-35.625c-4.6758-2.4531-10.414-1.5195-14.066 2.3086l-72.105 75.254-70.32-39.961c-5.7383-3.2383-12.965-1.2461-16.188 4.4609-3.25 5.707-1.2539 12.953 4.4531 16.195l78.367 44.527c4.6836 2.668 10.66 1.8398 14.438-2.1094l72.324-75.492 70.469 36.836c5.6836 2.9805 12.723 0.88672 15.855-4.7188l58.566-104.55zm-44.98-49.156 43.859-17.957 11.875 45.938-0.082031-0.042968c-3.6875-1.8477-52.52-26.363-55.652-27.938z"/>
  <path d="m1100.4 214.7h-486.5v-86.219c0-39.566-32.18-71.754-71.746-71.754l-440.41 0.003907c-39.566 0-71.746 32.184-71.746 71.75v240.12c0 39.566 32.18 71.754 71.746 71.754h61.414v475.9c0 38.367 31.219 69.582 69.59 69.582h329.84v43.551c0 37.141-19.781 71.348-51.66 90.137h-72.246c-6.5625 0-11.875 5.3164-11.875 11.875 0 6.5586 5.3125 11.875 11.875 11.875h455.75c6.5625 0 11.875-5.3164 11.875-11.875 0-6.5586-5.3125-11.875-11.875-11.875h-72.246c-31.883-18.789-51.66-53-51.66-90.137v-43.551h329.88c38.375 0 69.59-31.219 69.59-69.582l-0.003906-631.97c0-38.363-31.219-69.582-69.59-69.582zm-486.5 153.9v-49.406h451.6v515.48h-797.86v-394.32h121.46l28.863 74.707c10.801 27.875 50.199 27.844 60.984 0.023437l28.957-74.73h34.246c39.562 0 71.742-32.184 71.742-71.75zm-512.16 47.996c-26.461 0-47.996-21.535-47.996-48.004v-240.11c0-26.469 21.535-48.004 47.996-48.004h440.41c26.461 0 47.996 21.535 47.996 48.004v240.12c0 26.469-21.535 48.004-47.996 48.004h-42.371c-4.9062 0-9.3008 3.0156-11.074 7.582l-31.902 82.316c-2.9492 7.6133-13.734 7.6172-16.688-0.007812l-31.797-82.301c-1.7617-4.582-6.168-7.5977-11.074-7.5977zm681.95 702.92h-234.27c23.309-23.703 36.91-55.953 36.91-90.137v-43.551h160.45v43.551c0 34.188 13.602 66.434 36.914 90.137zm362.55-203.27c0 25.273-20.559 45.832-45.84 45.832-443.03-0.0625-550.64 0-867.66 0-25.277 0-45.84-20.559-45.84-45.832v-475.9h56.996v406.19c0 6.5547 5.3125 11.875 11.875 11.875h821.61c6.5625 0 11.875-5.3164 11.875-11.875l-0.003907-539.22c0-6.5586-5.3125-11.875-11.875-11.875h-463.48v-56.996h486.51c25.281 0 45.84 20.559 45.84 45.832z"/>
 </g>
</svg>
