<?xml version="1.0" encoding="UTF-8"?>
<svg width="1200pt" height="1200pt" version="1.1" viewBox="0 0 1200 1200" xmlns="http://www.w3.org/2000/svg">
 <path d="m933.2 617.45 1.4531-206.55h-0.003906c0.039062-7.3164-2.8398-14.348-8.0039-19.535-5.1602-5.1875-12.18-8.1055-19.496-8.1055h-0.046875l-232.97 0.27734c-0.38672-10.336-1.5664-20.629-3.5312-30.781l-1.125-5.582-44.234-13.449c-0.875-2.2695-1.8125-4.5195-2.7891-6.7344l3.6016-6.7344h142.8v-19.047l-132.61 0.003907 7.9609-14.883-1.375-2.0664h47.441l37.492-35.992h184.62-0.003906c3.1328 12.859 12.391 23.355 24.758 28.07 12.367 4.7188 26.262 3.0508 37.16-4.4609 10.898-7.5078 17.406-19.895 17.406-33.133 0-13.234-6.5078-25.621-17.406-33.133-10.898-7.5078-24.793-9.1758-37.16-4.4609-12.367 4.7148-21.625 15.211-24.758 28.07h-192.29l-37.492 35.992h-53.695c-13.172-16.047-28.75-29.957-46.18-41.234l-5.1094-3.3125-37.48 23.621c-0.34375-0.14844-0.6875-0.31641-1.043-0.46484l-8.1758-43.805-5.832-1.543h0.003906c-33.93-8.8633-69.57-8.8125-103.47 0.14844l-5.9219 1.582-7.3203 43.527c-1.375 0.61328-2.7422 1.2266-4.0938 1.8594l-37.973-22.844-5.0312 3.4023h-0.003906c-22.504 15.168-41.699 34.742-56.426 57.535l-3.3672 5.207 24.004 36.605c-1.5547 3.4414-3.0039 6.957-4.3359 10.508l-43.023 9.6719-1.2461 6.0078v0.003906c-2.793 13.52-4.2031 27.285-4.2031 41.09h0.91406c-4.7852 5.0664-7.457 11.766-7.4688 18.734v127.2l-110.92-0.003907c-10.848 0.015625-21.25 4.332-28.922 12.004-7.6719 7.6719-11.988 18.07-12 28.922v387.61c0.011719 10.852 4.3281 21.25 12 28.922 7.6719 7.6719 18.074 11.988 28.922 12h159.4c10.852-0.011718 21.254-4.3281 28.926-12 7.6719-7.6719 11.984-18.07 12-28.922v-150.22h140.04l-35.992 89.992h262.12l-36.008-89.992h80.488c9.3945 39.105 33 73.32 66.223 95.988 33.223 22.668 73.691 32.164 113.53 26.648 39.84-5.5156 76.203-25.656 102.02-56.5s39.23-70.184 37.645-110.37c-1.5898-40.188-18.07-78.348-46.234-107.06-28.164-28.711-66.004-45.918-106.15-48.277zm18.164-399.89c5.6211 0 11.016 2.2344 14.988 6.2109 3.9766 3.9766 6.207 9.3672 6.207 14.988 0 5.625-2.2344 11.016-6.2109 14.988-3.9766 3.9766-9.3672 6.207-14.992 6.207-5.6211-0.003906-11.012-2.2383-14.984-6.2148-3.9766-3.9766-6.207-9.3711-6.2031-14.992 0.007813-5.6172 2.2422-11.004 6.2148-14.977 3.9766-3.9727 9.3633-6.207 14.98-6.2109zm-615.67 134.71 1.7109-5.0781c2.0859-6.2305 4.5977-12.309 7.5156-18.191l2.4258-4.8906-23.062-35.195c11.68-16.812 26.125-31.531 42.715-43.527l36.449 21.93 4.7148-2.3984c3.9805-2.0469 8.0625-3.8984 12.238-5.5625l4.9961-1.9727 7.0391-41.816 0.003906 0.003906c26.977-6.168 54.996-6.207 81.992-0.11328l7.8398 42.02 4.8281 1.9531c3.2383 1.3203 6.4258 2.7148 9.5312 4.2422l4.7695 2.3242 35.973-22.656h0.003906c17.32 12.012 32.414 26.949 44.609 44.141l-20.844 38.953 2.082 4.3516c2.1641 4.5234 4.0898 9.1523 5.7656 13.875l1.6094 4.5195 42.355 12.871v0.003907c1.1562 7.1172 1.8906 14.297 2.1992 21.5l-75.523 0.089843c-3.0586-35.18-23.625-66.453-54.719-83.191-31.09-16.742-68.523-16.699-99.574 0.11719-31.051 16.812-51.547 48.137-54.52 83.324l-77.172 0.089844c-0.52734 0-1.0234 0.125-1.5469 0.15625 0.30078-7.5703 1.0703-15.113 2.2969-22.59zm224.43 31.398-169.81 0.19922v0.003906c2.8125-28.32 19.559-53.375 44.652-66.805 25.09-13.43 55.227-13.465 80.352-0.097656 25.125 13.371 41.93 38.387 44.809 66.699zm-426.8 195.96c0.007813-5.8008 2.3164-11.359 6.418-15.461s9.6602-6.4062 15.457-6.4141h159.4c5.8008 0.007813 11.359 2.3125 15.461 6.4141 4.1016 4.1016 6.4062 9.6602 6.4141 15.461v9.8203h-203.15zm203.15 28.871v314.97h-203.15v-314.98zm0 358.74v-0.003906c-0.007813 5.8008-2.3125 11.359-6.4141 15.461-4.1016 4.1016-9.6602 6.4062-15.461 6.4141h-159.4c-5.7969-0.007813-11.355-2.3125-15.457-6.4141s-6.4102-9.6602-6.418-15.461v-24.719h203.15zm357.07-79.277-205.85-0.003906 28.375-70.945h149.1zm-15.484-89.992-322.54-0.003906v-52.957h409.63c-3.832 17.383-4.668 35.293-2.4609 52.957zm245.55 124.14-0.003907-0.003906c-37.938 0-74.324-15.07-101.15-41.898-26.828-26.828-41.898-63.211-41.898-101.15 0-37.938 15.07-74.324 41.895-101.15 26.828-26.828 63.211-41.898 101.15-41.902 37.938 0 74.324 15.07 101.15 41.895s41.902 63.211 41.906 101.15c-0.042969 37.93-15.129 74.289-41.945 101.11-26.82 26.82-63.18 41.91-101.11 41.953zm-67.926-601.86v-19.047h21.949v19.047zm-53.98 0v-19.047h21.941v19.047zm118.94 430.13c12.023-0.011719 23.359-5.6133 30.668-15.156 7.3125-9.5469 9.7695-21.949 6.6484-33.559-3.1211-11.613-11.465-21.113-22.578-25.707-11.109-4.5938-23.727-3.7539-34.137 2.2656-10.406 6.0195-17.422 16.535-18.984 28.457s2.5117 23.895 11.02 32.391c7.2539 7.2539 17.102 11.324 27.363 11.309zm72.695 102.1h-145.39c-0.03125-19.301 7.6133-37.82 21.25-51.477 13.637-13.66 32.145-21.336 51.445-21.336 19.297 0 37.805 7.6758 51.441 21.336 13.637 13.656 21.281 32.176 21.25 51.477zm-469.25-169.68h25.781v19.047h-25.781zm50.52 0h25.781v19.047h-25.781zm-126.75 19.047h-25.781v-19.047h25.781zm24.738-19.047h25.785v19.047h-25.781zm208-55.266h-186.21c-5.2539-0.007813-9.5156-4.2656-9.5234-9.5234v-28.289l82.746-90.703 73.941 83.184 14.23-12.648-32.488-36.551 15.617-14.582 51.211 51.785v47.805h-0.003906c-0.003906 5.2578-4.2656 9.5195-9.5234 9.5234zm-186.21-154.28h186.21c5.2578 0.007813 9.5195 4.2656 9.5234 9.5234v60.34l-37.703-38.129c-3.7461-3.5508-8.7109-5.5391-13.875-5.5586-5.1641-0.015624-10.141 1.9375-13.914 5.4648l-14.117 13.727-28.664-32.254c-3.8438-4.0078-9.1562-6.2812-14.707-6.2891-5.5547-0.011719-10.875 2.2383-14.73 6.2344l-67.539 74.926-0.003906-78.461c0.007812-5.2578 4.2695-9.5156 9.5234-9.5234zm-317.77 328.31-14.156-12.762 43.246-47.973h0.003907c2.9023-3.0039 6.9023-4.6953 11.078-4.6914 4.1797 0.007812 8.1719 1.7148 11.066 4.7305l12.844 14.473 19.625-13.301c2.8008-2.3242 6.375-3.5 10.008-3.2891 3.6328 0.21094 7.0469 1.793 9.5586 4.4219l27.156 27.457-13.543 13.395-24.656-24.926-15.422 10.547 12.984 14.621-14.23 12.648-35.445-39.863z"/>
</svg>
