<?xml version="1.0" encoding="UTF-8"?>
<svg width="1200pt" height="1200pt" version="1.1" viewBox="0 0 1200 1200" xmlns="http://www.w3.org/2000/svg">
 <g>
  <path d="m862.8 579.6h-262.8c-7.1992 0-13.199-6-13.199-13.199 0-7.1992 6-13.199 13.199-13.199h262.8c7.1992 0 13.199 6 13.199 13.199 0 7.1992-6 13.199-13.199 13.199z"/>
  <path d="m862.8 706.8h-525.6c-7.1992 0-13.199-6-13.199-13.199 0-7.1992 6-13.199 13.199-13.199h525.6c7.1992 0 13.199 6 13.199 13.199 0 7.1992-6 13.199-13.199 13.199z"/>
  <path d="m862.8 834h-525.6c-7.1992 0-13.199-6-13.199-13.199s6-13.199 13.199-13.199h525.6c7.1992 0 13.199 6 13.199 13.199s-6 13.199-13.199 13.199z"/>
  <path d="m862.8 962.4h-525.6c-7.1992 0-13.199-6-13.199-13.199s6-13.199 13.199-13.199h525.6c7.1992 0 13.199 6 13.199 13.199s-6 13.199-13.199 13.199z"/>
  <path d="m624 466.8c-96 15.602-177.6-66-162-162 9.6016-57.602 56.398-104.4 114-114 96-15.602 177.6 66 162 162-9.6016 57.598-56.398 104.4-114 114zm-3.6016-258c-82.801-13.199-154.8 57.602-140.4 140.4 8.3984 50.398 49.199 91.199 99.602 99.602 82.801 13.199 154.8-57.602 140.4-140.4-8.3984-50.402-49.199-91.203-99.602-99.602zm-39.598 186-55.199-55.199c-3.6016-3.6016-3.6016-9.6016 0-13.199 3.6016-3.6016 9.6016-3.6016 13.199 0l42 42 80.398-80.398c3.6016-3.6016 9.6016-3.6016 13.199 0 3.6016 3.6016 3.6016 9.6016 0 13.199z"/>
  <path d="m813.6 127.2c-4.8008-4.8008-10.801-7.1992-18-7.1992h-526.8c-21.602 0-38.398 16.801-38.398 38.398v883.2c0 21.602 18 38.398 38.398 38.398h662.4c21.602 0 38.398-16.801 38.398-38.398l0.003906-747.6c0-7.1992-2.3984-13.199-7.1992-18zm135.6 158.4h-133.2c-7.1992 0-12-6-12-12v-133.2zm3.6016 756c0 12-9.6016 21.602-21.602 21.602l-662.4-0.003906c-12 0-21.602-9.6016-21.602-21.602v-883.2c0-12 9.6016-21.602 21.602-21.602h519.6v135.6c0 15.602 12 27.602 27.602 27.602h135.6l-0.003907 741.6z"/>
 </g>
</svg>
