<?xml version="1.0" encoding="UTF-8"?>
<svg width="1200pt" height="1200pt" version="1.1" viewBox="0 0 1200 1200" xmlns="http://www.w3.org/2000/svg">
 <g>
  <path d="m140.62 583.74c0 8.0859 9.4922 12.305 15.645 7.0312 1.9336-1.7578 3.1641-4.3945 3.1641-7.0312v-37.441c0-5.4492-4.3945-9.1406-9.1406-9.3164 2.1094 0 4.2188-0.70312 5.9766-2.2852 1.9336-1.7578 3.1641-4.3945 3.1641-7.0312v-37.441c0-5.4492-4.3945-9.1406-9.1406-9.3164 2.1094 0 4.2188-0.70312 5.9766-2.2852 1.9336-1.7578 3.1641-4.3945 3.1641-7.0312v-37.441c0-5.4492-4.3945-9.1406-9.1406-9.3164 2.1094 0 4.2188-0.70313 5.9766-2.2852 1.9336-1.7578 3.1641-4.3945 3.1641-7.0312v-37.441c0-5.4492-4.3945-9.1406-9.1406-9.3164 2.1094 0 4.2188-0.70312 5.9766-2.2852 1.9336-1.7578 3.1641-4.3945 3.1641-7.0312v-37.441c0-5.4492-4.3945-9.1406-9.1406-9.3164 2.1094 0 4.2188-0.70312 5.9766-2.2852 1.9336-1.7578 3.1641-4.3945 3.1641-7.0312v-37.441c0-5.4492-4.3945-9.1406-9.1406-9.3164 2.1094 0 4.2188-0.70312 5.9766-2.2852 1.9336-1.7578 3.1641-4.3945 3.1641-7.0312v-37.441c0-5.4492-4.3945-9.1406-9.1406-9.3164 2.1094 0 4.2188-0.70312 5.9766-2.2852 0.35156-0.35156 0.87891-0.70312 1.0547-1.2305h26.543c5.4492 0 9.1406-4.3945 9.3164-9.1406 0 2.1094 0.70312 4.2188 2.2852 5.9766 1.7578 1.9336 4.3945 3.1641 7.0312 3.1641h37.441c5.4492 0 9.1406-4.3945 9.3164-9.1406 0 2.1094 0.70312 4.2188 2.2852 5.9766 1.7578 1.9336 4.3945 3.1641 7.0312 3.1641h37.441c5.4492 0 9.1406-4.3945 9.3164-9.1406 0 2.1094 0.70312 4.2188 2.2852 5.9766 1.7578 1.9336 4.3945 3.1641 7.0312 3.1641h37.441c5.4492 0 9.1406-4.3945 9.3164-9.1406 0 2.1094 0.70312 4.2188 2.2852 5.9766 1.7578 1.9336 4.3945 3.1641 7.0312 3.1641h37.441c5.4492 0 9.1406-4.3945 9.3164-9.1406 0 2.1094 0.70312 4.2188 2.2852 5.9766 1.7578 1.9336 4.3945 3.1641 7.0312 3.1641h37.441c5.4492 0 9.1406-4.3945 9.3164-9.1406 0 2.1094 0.70312 4.2188 2.2852 5.9766 1.7578 1.9336 4.3945 3.1641 7.0312 3.1641h37.441c5.4492 0 9.1406-4.3945 9.3164-9.1406 0 2.1094 0.70312 4.2188 2.2852 5.9766 1.7578 1.9336 4.3945 3.1641 7.0312 3.1641h37.441c5.4492 0 9.1406-4.3945 9.3164-9.1406 0 2.1094 0.70313 4.2188 2.2852 5.9766 1.7578 1.9336 4.3945 3.1641 7.0312 3.1641h37.441c5.4492 0 9.1406-4.3945 9.3164-9.1406 0 2.1094 0.70312 4.2188 2.2852 5.9766 1.7578 1.9336 4.3945 3.1641 7.0312 3.1641h37.441c5.4492 0 9.1406-4.3945 9.3164-9.1406 0 2.1094 0.70312 4.2188 2.2852 5.9766 1.7578 1.9336 4.3945 3.1641 7.0312 3.1641h37.441c5.4492 0 9.1406-4.3945 9.3164-9.1406 0 2.1094 0.70312 4.2188 2.2852 5.9766 1.7578 1.9336 4.3945 3.1641 7.0312 3.1641h37.441c5.4492 0 9.1406-4.3945 9.3164-9.1406 0 2.1094 0.70312 4.2188 2.2852 5.9766 1.7578 1.9336 4.3945 3.1641 7.0312 3.1641h37.441c5.4492 0 9.1406-4.3945 9.3164-9.1406 0 2.1094 0.70312 4.2188 2.2852 5.9766 1.7578 1.9336 4.3945 3.1641 7.0312 3.1641h37.441c5.4492 0 9.1406-4.3945 9.3164-9.1406 0 2.1094 0.70312 4.2188 2.2852 5.9766 1.7578 1.9336 4.3945 3.1641 7.0312 3.1641h37.441c5.4492 0 9.1406-4.3945 9.3164-9.1406 0 2.1094 0.70312 4.2188 2.2852 5.9766 1.7578 1.9336 4.3945 3.1641 7.0312 3.1641h37.441c5.4492 0 9.1406-4.3945 9.3164-9.1406 0 2.1094 0.70313 4.2188 2.2852 5.9766 0.35156 0.35156 0.70312 0.87891 1.2305 1.2305v26.543c0 5.4492 4.3945 9.1406 9.1406 9.3164-2.1094 0-4.2188 0.70312-5.9766 2.2852-1.9336 1.7578-3.1641 4.3945-3.1641 7.0312v37.441c0 5.4492 4.3945 9.1406 9.1406 9.3164-2.1094 0-4.2188 0.70312-5.9766 2.2852-1.9336 1.7578-3.1641 4.3945-3.1641 7.0312v37.441c0 5.4492 4.3945 9.1406 9.1406 9.3164-2.1094 0-4.2188 0.70312-5.9766 2.2852-1.9336 1.7578-3.1641 4.3945-3.1641 7.0312v37.441c0 5.4492 4.3945 9.1406 9.1406 9.3164-2.1094 0-4.2188 0.70312-5.9766 2.2852-1.9336 1.7578-3.1641 4.3945-3.1641 7.0312v37.441c0 5.4492 4.3945 9.1406 9.1406 9.3164-2.1094 0-4.2188 0.70312-5.9766 2.2852-1.9336 1.7578-3.1641 4.3945-3.1641 7.0312v37.441c0 5.4492 4.3945 9.1406 9.1406 9.3164-2.1094 0-4.2188 0.70313-5.9766 2.2852-1.9336 1.7578-3.1641 4.3945-3.1641 7.0312v37.441c0 5.4492 4.3945 9.1406 9.1406 9.3164-2.1094 0-4.2188 0.70312-5.9766 2.2852-1.9336 1.7578-3.1641 4.3945-3.1641 7.0312v37.441c0 5.4492 4.3945 9.1406 9.1406 9.3164-2.1094 0-4.2188 0.70312-5.9766 2.2852-1.9336 1.7578-3.1641 4.3945-3.1641 7.0312v37.441c0 5.4492 4.3945 9.1406 9.1406 9.3164-2.1094 0-4.2188 0.70312-5.9766 2.2852-1.9336 1.7578-3.1641 4.3945-3.1641 7.0312v37.441c0 5.4492 4.3945 9.1406 9.1406 9.3164-2.1094 0-4.2188 0.70312-5.9766 2.2852-1.9336 1.7578-3.1641 4.3945-3.1641 7.0312v37.441c0 5.4492 4.3945 9.1406 9.1406 9.3164-2.1094 0-4.2188 0.70312-5.9766 2.2852-1.9336 1.7578-3.1641 4.3945-3.1641 7.0312v37.441c0 5.4492 4.3945 9.1406 9.1406 9.3164-2.1094 0-4.2188 0.70312-5.9766 2.2852-1.9336 1.7578-3.1641 4.3945-3.1641 7.0312v37.441c0 5.4492 4.3945 9.1406 9.1406 9.3164-2.1094 0-4.2188 0.70312-5.9766 2.2852-1.9336 1.7578-3.1641 4.3945-3.1641 7.0312v29.004c-1.4062 1.582-2.2852 3.6914-2.2852 5.8008 0-2.1094-0.70312-4.2188-2.2852-5.9766-1.7578-1.9336-4.3945-3.1641-7.0312-3.1641h-37.441c-5.4492 0-9.1406 4.3945-9.3164 9.1406 0-2.1094-0.70312-4.2188-2.2852-5.9766-1.7578-1.9336-4.3945-3.1641-7.0312-3.1641h-37.441c-5.4492 0-9.1406 4.3945-9.3164 9.1406 0-2.1094-0.70312-4.2188-2.2852-5.9766-1.7578-1.9336-4.3945-3.1641-7.0312-3.1641h-37.441c-5.4492 0-9.1406 4.3945-9.3164 9.1406 0-2.1094-0.70312-4.2188-2.2852-5.9766-1.7578-1.9336-4.3945-3.1641-7.0312-3.1641h-37.441c-5.4492 0-9.1406 4.3945-9.3164 9.1406 0-2.1094-0.70312-4.2188-2.2852-5.9766-1.7578-1.9336-4.3945-3.1641-7.0312-3.1641h-37.441c-5.4492 0-9.1406 4.3945-9.3164 9.1406 0-2.1094-0.70313-4.2188-2.2852-5.9766-1.7578-1.9336-4.3945-3.1641-7.0312-3.1641h-37.441c-8.0859 0-12.305 9.4922-7.0312 15.645 1.7578 1.9336 4.3945 3.1641 7.0312 3.1641h37.441c5.4492 0 9.1406-4.3945 9.3164-9.1406 0 2.1094 0.70312 4.2188 2.2852 5.9766 1.7578 1.9336 4.3945 3.1641 7.0312 3.1641h37.441c5.4492 0 9.1406-4.3945 9.3164-9.1406 0 2.1094 0.70312 4.2188 2.2852 5.9766 1.7578 1.9336 4.3945 3.1641 7.0312 3.1641h37.441c5.4492 0 9.1406-4.3945 9.3164-9.1406 0 2.1094 0.70312 4.2188 2.2852 5.9766 1.7578 1.9336 4.3945 3.1641 7.0312 3.1641h37.441c5.4492 0 9.1406-4.3945 9.3164-9.1406 0 2.1094 0.70312 4.2188 2.2852 5.9766 1.7578 1.9336 4.3945 3.1641 7.0312 3.1641h37.441c5.4492 0 9.1406-4.3945 9.3164-9.1406 0 2.1094 0.70313 4.2188 2.2852 5.9766 1.7578 1.9336 4.3945 3.1641 7.0312 3.1641h37.441c5.4492 0 9.1406-4.3945 9.3164-9.1406 0 2.1094 0.70312 4.2188 2.2852 5.9766 1.7578 1.9336 4.3945 3.1641 7.0312 3.1641h2.1094c2.2852 0 4.5703-0.70312 6.5039-2.2852 1.9336-1.7578 3.1641-4.3945 3.1641-7.0312v-35.156c0-5.4492-4.3945-9.1406-9.1406-9.3164 2.1094 0 4.2188-0.70312 5.9766-2.2852 1.9336-1.7578 3.1641-4.3945 3.1641-7.0312v-37.441c0-5.4492-4.3945-9.1406-9.1406-9.3164 2.1094 0 4.2188-0.70312 5.9766-2.2852 1.9336-1.7578 3.1641-4.3945 3.1641-7.0312v-37.441c0-5.4492-4.3945-9.1406-9.1406-9.3164 2.1094 0 4.2188-0.70312 5.9766-2.2852 1.9336-1.7578 3.1641-4.3945 3.1641-7.0312v-37.441c0-5.4492-4.3945-9.1406-9.1406-9.3164 2.1094 0 4.2188-0.70313 5.9766-2.2852 1.9336-1.7578 3.1641-4.3945 3.1641-7.0312v-37.441c0-5.4492-4.3945-9.1406-9.1406-9.3164 2.1094 0 4.2188-0.70312 5.9766-2.2852 1.9336-1.7578 3.1641-4.3945 3.1641-7.0312v-37.441c0-5.4492-4.3945-9.1406-9.1406-9.3164 2.1094 0 4.2188-0.70312 5.9766-2.2852 1.9336-1.7578 3.1641-4.3945 3.1641-7.0312v-37.441c0-5.4492-4.3945-9.1406-9.1406-9.3164 2.1094 0 4.2188-0.70312 5.9766-2.2852 1.9336-1.7578 3.1641-4.3945 3.1641-7.0312v-37.441c0-5.4492-4.3945-9.1406-9.1406-9.3164 2.1094 0 4.2188-0.70312 5.9766-2.2852 1.9336-1.7578 3.1641-4.3945 3.1641-7.0312v-37.441c0-5.4492-4.3945-9.1406-9.1406-9.3164 2.1094 0 4.2188-0.70312 5.9766-2.2852 1.9336-1.7578 3.1641-4.3945 3.1641-7.0312v-37.441c0-5.4492-4.3945-9.1406-9.1406-9.3164 2.1094 0 4.2188-0.70312 5.9766-2.2852 1.9336-1.7578 3.1641-4.3945 3.1641-7.0312v-37.441c0-5.4492-4.3945-9.1406-9.1406-9.3164 2.1094 0 4.2188-0.70312 5.9766-2.2852 1.9336-1.7578 3.1641-4.3945 3.1641-7.0312v-37.441c0-5.4492-4.3945-9.1406-9.1406-9.3164 2.1094 0 4.2188-0.70313 5.9766-2.2852 1.9336-1.7578 3.1641-4.3945 3.1641-7.0312v-37.441c0-5.4492-4.3945-9.1406-9.1406-9.3164 2.1094 0 4.2188-0.70312 5.9766-2.2852 1.9336-1.7578 3.1641-4.3945 3.1641-7.0312v-33.75c0-2.2852-0.70312-4.5703-2.2852-6.5039-1.7578-1.9336-4.3945-3.1641-7.0312-3.1641h-3.5156c-5.4492 0-9.1406 4.3945-9.3164 9.1406 0-2.1094-0.70312-4.2188-2.2852-5.9766-1.7578-1.9336-4.3945-3.1641-7.0312-3.1641h-37.441c-5.4492 0-9.1406 4.3945-9.3164 9.1406 0-2.1094-0.70312-4.2188-2.2852-5.9766-1.7578-1.9336-4.3945-3.1641-7.0312-3.1641h-37.441c-5.4492 0-9.1406 4.3945-9.3164 9.1406 0-2.1094-0.70312-4.2188-2.2852-5.9766-1.7578-1.9336-4.3945-3.1641-7.0312-3.1641h-37.441c-5.4492 0-9.1406 4.3945-9.3164 9.1406 0-2.1094-0.70313-4.2188-2.2852-5.9766-1.7578-1.9336-4.3945-3.1641-7.0312-3.1641h-37.441c-5.4492 0-9.1406 4.3945-9.3164 9.1406 0-2.1094-0.70312-4.2188-2.2852-5.9766-1.7578-1.9336-4.3945-3.1641-7.0312-3.1641h-37.441c-5.4492 0-9.1406 4.3945-9.3164 9.1406 0-2.1094-0.70312-4.2188-2.2852-5.9766-1.7578-1.9336-4.3945-3.1641-7.0312-3.1641h-37.441c-5.4492 0-9.1406 4.3945-9.3164 9.1406 0-2.1094-0.70312-4.2188-2.2852-5.9766-1.7578-1.9336-4.3945-3.1641-7.0312-3.1641h-37.441c-5.4492 0-9.1406 4.3945-9.3164 9.1406 0-2.1094-0.70312-4.2188-2.2852-5.9766-1.7578-1.9336-4.3945-3.1641-7.0312-3.1641h-37.441c-5.4492 0-9.1406 4.3945-9.3164 9.1406 0-2.1094-0.70312-4.2188-2.2852-5.9766-1.7578-1.9336-4.3945-3.1641-7.0312-3.1641h-37.441c-5.4492 0-9.1406 4.3945-9.3164 9.1406 0-2.1094-0.70312-4.2188-2.2852-5.9766-1.7578-1.9336-4.3945-3.1641-7.0312-3.1641h-37.441c-5.4492 0-9.1406 4.3945-9.3164 9.1406 0-2.1094-0.70312-4.2188-2.2852-5.9766-1.7578-1.9336-4.3945-3.1641-7.0312-3.1641h-37.441c-5.4492 0-9.1406 4.3945-9.3164 9.1406 0-2.1094-0.70313-4.2188-2.2852-5.9766-1.7578-1.9336-4.3945-3.1641-7.0312-3.1641h-37.441c-5.4492 0-9.1406 4.3945-9.3164 9.1406 0-2.1094-0.70312-4.2188-2.2852-5.9766-1.7578-1.9336-4.3945-3.1641-7.0312-3.1641h-37.441c-5.4492 0-9.1406 4.3945-9.3164 9.1406 0-2.1094-0.70312-4.2188-2.2852-5.9766-1.7578-1.9336-4.3945-3.1641-7.0312-3.1641h-37.441c-5.4492 0-9.1406 4.3945-9.3164 9.1406 0-2.1094-0.70312-4.2188-2.2852-5.9766-1.7578-1.9336-4.3945-3.1641-7.0312-3.1641h-37.441c-5.4492 0-9.1406 4.3945-9.3164 9.1406 0-2.1094-0.70312-4.2188-2.2852-5.9766-1.7578-1.9336-4.3945-3.1641-7.0312-3.1641h-33.75c-2.2852 0-4.5703 0.70312-6.5039 2.2852-1.9336 1.7578-3.1641 4.3945-3.1641 7.0312v3.5156c0 5.4492 4.3945 9.1406 9.1406 9.3164-2.1094 0-4.2188 0.70312-5.9766 2.2852-1.9336 1.7578-3.1641 4.3945-3.1641 7.0312v37.441c0 5.4492 4.3945 9.1406 9.1406 9.3164-2.1094 0-4.2188 0.70312-5.9766 2.2852-1.9336 1.7578-3.1641 4.3945-3.1641 7.0312v37.441c0 5.4492 4.3945 9.1406 9.1406 9.3164-2.1094 0-4.2188 0.70312-5.9766 2.2852-1.9336 1.7578-3.1641 4.3945-3.1641 7.0312v37.441c0 5.4492 4.3945 9.1406 9.1406 9.3164-2.1094 0-4.2188 0.70312-5.9766 2.2852-1.9336 1.7578-3.1641 4.3945-3.1641 7.0312v37.441c0 5.4492 4.3945 9.1406 9.1406 9.3164-2.1094 0-4.2188 0.70312-5.9766 2.2852-1.9336 1.7578-3.1641 4.3945-3.1641 7.0312v37.441c0 5.4492 4.3945 9.1406 9.1406 9.3164-2.1094 0-4.2188 0.70312-5.9766 2.2852-1.9336 1.7578-3.1641 4.3945-3.1641 7.0312v37.441c0 5.4492 4.3945 9.1406 9.1406 9.3164-2.1094 0-4.2188 0.70312-5.9766 2.2852-1.9336 1.7578-3.1641 4.3945-3.1641 7.0312z"/>
  <path d="m702.21 577.41-26.543-26.543 158.72-158.72c7.3828-7.3828 19.16-7.3828 26.543 0 7.3828 7.3828 7.3828 19.16 0 26.543z" fill-rule="evenodd"/>
  <path d="m157.67 601.14h499.02c7.207 0 13.008 5.8008 13.008 13.008v324.3c0 7.207-5.8008 13.008-13.008 13.008h-499.02c-7.207 0-13.008-5.8008-13.008-13.008v-324.3c0-7.207 5.8008-13.008 13.008-13.008zm486.01 26.016h-473v298.29h473z" fill-rule="evenodd"/>
  <path d="m289.14 1022.8c-2.9883 0-5.4492-4.043-5.4492-8.7891 33.75-4.7461 35.508-16.875 37.617-16.875h171.38c2.1094 0 4.043 12.129 37.617 16.875 0 4.9219-2.4609 8.7891-5.4492 8.7891z"/>
  <path d="m349.09 946.89c0-2.9883 26.016-5.4492 58.004-5.4492 31.992 0 58.004 2.4609 58.004 5.4492v65.562c0 2.9883-26.016 5.4492-58.004 5.4492-31.992 0-58.004-2.4609-58.004-5.4492z"/>
  <path d="m155.91 874.82v66.617c174.89 5.625 328.87 5.8008 503.77 0v-66.617zm239.75 33.223c0-6.3281 5.0977-11.426 11.426-11.426s11.426 5.0977 11.426 11.426-5.0977 11.426-11.426 11.426-11.426-5.0977-11.426-11.426z" fill-rule="evenodd"/>
  <path d="m785.18 374.92h95.973v96.148z" fill-rule="evenodd"/>
 </g>
</svg>
