<?xml version="1.0" encoding="UTF-8"?>
<svg width="1200pt" height="1200pt" version="1.1" viewBox="0 0 1200 1200" xmlns="http://www.w3.org/2000/svg">
 <path d="m599.71 55.875c-4.9727 0.085938-9.707 2.1484-13.16 5.7266-3.457 3.5781-5.3477 8.3789-5.2617 13.352v62.145c-34.363 7.3828-61.516 34.586-68.922 68.957h-281.25l0.003907 0.003906h-0.14844c-6.3242 0.035156-12.203 3.2578-15.637 8.5703 0 0-39.363 60.754-78.883 132.61-19.758 35.926-39.594 74.703-54.676 110.45-15.078 35.746-26 67.688-26 94.961 0 96.582 78.762 175.2 175.34 175.2 96.582 0 175.23-78.613 175.23-175.2 0-27.27-10.812-59.211-25.891-94.961-15.078-35.746-34.918-74.523-54.676-110.45-25-45.449-45.871-79.676-60.863-103.68h247.41c7.3672 34.402 34.559 61.59 68.957 68.957v674.45h-178.68c-52.879 0-95.91 43.199-95.91 96.059v23.656h-62.691c-0.64844-0.03125-1.2969-0.03125-1.9414 0-6.4023 0.70703-11.996 4.6484-14.812 10.441-2.8125 5.793-2.4609 12.629 0.94141 18.098 3.3984 5.4727 9.3711 8.8125 15.812 8.8516h712.09c5.2109 0.40625 10.355-1.3789 14.191-4.9297 3.8398-3.5469 6.0195-8.5391 6.0195-13.766s-2.1797-10.215-6.0195-13.766c-3.8359-3.5469-8.9805-5.3359-14.191-4.9297h-62.695v-23.656c0-52.859-43.18-96.059-96.059-96.059h-178.52v-674.49c34.352-7.4141 61.539-34.57 68.922-68.922h247.34c-14.953 24-35.762 58.23-60.754 103.68-19.758 35.926-39.594 74.703-54.676 110.45-15.078 35.746-26.039 67.688-26.039 94.961 0 96.582 78.797 175.2 175.38 175.2 96.582 0 175.23-78.613 175.23-175.2 0-27.27-10.812-59.211-25.891-94.961-15.078-35.746-34.918-74.523-54.676-110.45-39.52-71.852-79.027-132.61-79.027-132.61v0.003906c-3.4336-5.3125-9.3164-8.5352-15.641-8.5703h-281.29c-7.418-34.32-34.57-61.492-68.883-68.922v-62.184c0.089843-5.0938-1.8984-10.004-5.5039-13.602-3.6055-3.5977-8.5195-5.5742-13.613-5.4766zm0.29297 116.68c29.082 0 52.293 23.25 52.293 52.332 0 29.078-23.215 52.184-52.293 52.184-29.082 0-52.184-23.105-52.184-52.184 0-29.082 23.105-52.332 52.184-52.332zm-368.88 88.844c11.285 17.754 30.863 47.816 61.742 103.97 19.371 35.223 38.723 73.035 52.992 106.86 8.8008 20.863 15.137 40.035 18.969 55.773h-267.55c3.832-15.738 10.168-34.91 18.969-55.773 14.27-33.824 33.656-71.637 53.027-106.86 30.898-56.18 50.586-86.238 61.852-103.97zm737.73 0c11.266 17.73 30.988 47.785 61.891 103.97 19.371 35.223 38.723 73.035 52.992 106.86 8.8008 20.863 15.141 40.035 18.969 55.773h-267.55c3.832-15.738 10.168-34.91 18.969-55.773 14.27-33.824 33.617-71.637 52.992-106.86 30.883-56.148 50.461-86.211 61.742-103.97zm-874.95 304.1h274.33c-6.457 70.223-65.145 124.84-137.11 124.84-71.965 0-130.75-54.621-137.22-124.84zm737.88 0h274.29c-6.457 70.223-65.105 124.84-137.07 124.84-71.965 0-130.75-54.621-137.22-124.84zm-429.16 458.97h178.68v3.7344h37.535v-3.7344h178.53c32.738 0 58.559 25.801 58.559 58.559v23.656l-511.71-0.003906v-23.656c0-32.754 25.676-58.559 58.41-58.559z"/>
</svg>
