<?xml version="1.0" encoding="UTF-8"?>
<svg width="1200pt" height="1200pt" version="1.1" viewBox="0 0 1200 1200" xmlns="http://www.w3.org/2000/svg">
 <path d="m600.02 1164.6c12.492 0 22.789-9.6133 23.867-21.707 1.4414-14.258-9.9375-26.281-23.867-26.281l-23.039-0.50391c-33.984 0-31.176 47.953-1.8711 47.953 8.3164 0.32422 16.598 0.50391 24.914 0.53906zm-24.012-773.36c0-13.25 10.727-24.012 24.012-24.012 13.25 0 24.012 10.727 24.012 24.012v208.73c0 13.25-10.727 24.012-24.012 24.012-5.0039 0-9.6133-1.5117-13.465-4.1406l-121-72.938c-11.34-6.8398-14.977-21.562-8.1367-32.906 6.8398-11.34 21.562-14.977 32.906-8.1367l85.719 51.66v-166.29zm24.012 569.31c13.25 0 24.012 10.727 24.012 24.012 0 13.25-10.727 24.012-24.012 24.012-112.82 0-215-45.758-288.9-119.66-73.91-73.945-119.66-176.08-119.66-288.9 0-112.82 45.758-215 119.66-288.9 73.945-73.91 176.08-119.66 288.9-119.66s215 45.758 288.9 119.66c73.945 73.91 119.66 176.08 119.66 288.9 0 13.25-10.727 24.012-24.012 24.012-13.25 0-24.012-10.727-24.012-24.012 0-99.578-40.355-189.72-105.62-254.95-65.234-65.27-155.41-105.62-254.95-105.62-99.578 0-189.72 40.355-254.99 105.59-65.234 65.27-105.59 155.41-105.59 254.99s40.355 189.72 105.59 254.99c65.27 65.234 155.41 105.59 254.99 105.59zm516.64-360.58c0 12.492 9.6133 22.789 21.707 23.867 14.258 1.4414 26.281-9.9375 26.281-23.867-0.035157-8.4258-0.17969-16.777-0.57422-25.199-2.8789-31.789-47.918-29.734-47.918 2.1602 0.32422 7.7031 0.46875 15.336 0.50391 23.039zm-12.238-112.25c5.2188 28.691 52.922 23.039 46.836-10.547-3.5273-15.984-7.8477-31.895-12.742-47.52-8.8203-29.414-55.082-16.598-45.758 14.543 4.5352 14.328 8.4609 28.871 11.664 43.523zm-46.188-126.61c13.535 27.074 57.168 7.0547 42.445-22.43-7.4883-14.398-15.875-28.91-24.66-42.551-18.109-27.145-57.348 0.46875-40.355 25.922 8.0625 12.707 15.66 25.668 22.609 39.023zm-77.543-110.41c19.871 22.68 57.133-7.5586 35.316-32.473-11.09-12.023-22.715-23.832-34.883-34.812-24.695-21.602-55.188 15.445-32.328 35.461 11.125 10.188 21.672 20.773 31.859 31.824zm-103.32-86.652c25.199 16.812 53.137-22.25 25.703-40.535-13.789-8.8203-28.117-17.062-42.625-24.625-29.016-14.508-49.574 28.836-22.105 42.59 13.32 7.0547 26.316 14.438 39.023 22.57zm-122.15-56.988c30.887 9.2539 43.883-36.938 14.258-45.828-15.625-4.9336-31.574-9.1445-47.555-12.672-33.191-6.0469-39.312 41.617-10.223 46.871 14.762 3.3477 29.09 7.0938 43.523 11.629zm-132.8-23.258c33.984 0 31.176-47.953 1.8711-47.953-16.379-0.64844-32.797-0.71875-49.176 0.035156-31.789 2.8789-29.734 47.918 2.1602 47.918 15.121-0.61328 30.023-0.61328 45.145 0zm-134.35 11.699c28.691-5.2188 23.039-52.922-10.547-46.836-15.84 3.3477-32.148 7.8125-47.555 12.742-29.414 8.8203-16.598 55.082 14.543 45.758 14.148-4.5352 29.051-8.5664 43.559-11.664zm-126.65 46.082c27.074-13.535 7.0547-57.168-22.43-42.445-14.398 7.5234-28.91 15.805-42.551 24.66-27.145 18.109 0.46875 57.348 25.922 40.355 12.742-8.1016 25.668-15.59 39.059-22.609zm-110.48 77.508c22.68-19.871-7.5586-57.133-32.473-35.316-12.023 10.871-23.902 22.824-34.812 34.848-21.602 24.695 15.445 55.188 35.461 32.328 10.223-10.98 20.734-21.746 31.859-31.824zm-86.727 103.25c16.812-25.199-22.25-53.137-40.535-25.703-8.7852 13.68-17.137 28.152-24.625 42.59-14.508 29.016 28.836 49.574 42.59 22.105 6.9844-13.285 14.473-26.352 22.609-38.988zm-57.062 122.11c9.2539-30.887-36.938-43.883-45.828-14.258-4.8594 15.66-9.2148 31.535-12.707 47.555-6.0469 33.191 41.617 39.312 46.871 10.223 3.3477-14.797 7.1641-29.051 11.664-43.523zm-23.328 132.77c0-33.984-47.953-31.176-47.953-1.8711-0.68359 16.344-0.75781 32.797 0 49.176 2.8789 31.789 47.918 29.734 47.918-2.1602-0.61328-15.121-0.61328-30.023 0-45.145zm11.594 134.39c-5.2188-28.691-52.922-23.039-46.836 10.547 3.457 15.949 7.8125 32.004 12.707 47.555 8.8203 29.414 55.082 16.598 45.758-14.543-4.5352-14.258-8.4609-28.945-11.629-43.559zm46.008 126.65c-13.535-27.074-57.168-7.0547-42.445 22.43 7.5234 14.438 15.805 28.945 24.625 42.59 18.109 27.145 57.348-0.46875 40.355-25.922-8.0625-12.781-15.59-25.668-22.57-39.059zm77.438 110.52c-19.871-22.68-57.133 7.5586-35.316 32.473 10.691 11.879 22.934 24.191 34.812 34.848 24.695 21.602 55.188-15.445 32.328-35.461-10.945-10.117-21.852-20.773-31.824-31.859zm103.21 86.797c-25.199-16.812-53.137 22.25-25.703 40.535 13.68 8.7852 28.152 17.207 42.59 24.66 29.016 14.508 49.574-28.836 22.105-42.59-13.32-7.0195-26.316-14.473-38.988-22.609zm122.08 57.133c-30.887-9.2539-43.883 36.938-14.258 45.828 15.59 4.8945 31.609 9.2539 47.555 12.742 33.191 6.0469 39.312-41.617 10.223-46.871-14.762-3.3125-29.09-7.1289-43.523-11.664z"/>
</svg>
