<?xml version="1.0" encoding="UTF-8"?>
<svg width="1200pt" height="1200pt" version="1.1" viewBox="0 0 1200 1200" xmlns="http://www.w3.org/2000/svg">
 <path d="m845.04 920.52c1.3203 3.6016 0.23828 7.5586-2.6406 9.9609l-236.64 198.84c-1.6797 1.4414-3.7188 2.1602-5.7617 2.1602-2.0391 0-4.0781-0.71875-5.7617-2.1602l-236.64-198.84c-2.8789-2.3984-3.9609-6.4805-2.6406-9.9609 1.3203-3.6016 4.6797-5.8789 8.3984-5.8789h106.92v-127.68c0-4.9219 4.0781-9 9-9s9 4.0781 9 9v136.56c0 4.9219-4.0781 9-9 9h-91.32l212.04 178.2 211.92-178.2h-91.32c-4.9219 0-9-4.0781-9-9v-136.56c0-4.9219 4.0781-9 9-9 4.9219 0 9 4.0781 9 9v127.56h106.92c3.8359 0 7.1953 2.4023 8.5156 6zm-161.64-638.76v155.4h155.4c4.9219 0 9 4.0781 9 9v148.92c0 4.9219-4.0781 9-9 9l-155.4-0.003906v155.52c0 4.9219-4.0781 9-9 9h-148.8c-4.9219 0-9-4.0781-9-9v-155.52h-155.52c-4.9219 0-9-4.0781-9-9v-148.92c0-4.9219 4.0781-9 9-9h155.4l0.003907-155.4c0-4.9219 4.0781-9 9-9h148.92c5.043 0 9 3.957 9 9zm-9 173.4c-4.9219 0-9-4.0781-9-9v-155.4h-130.8v155.4c0 4.9219-4.0781 9-9 9h-155.52v130.92l155.52-0.003906c4.9219 0 9 4.0781 9 9v155.4h130.92l-0.003907-155.4c0-4.9219 4.0781-9 9-9h155.4l0.003906-130.92zm348.24 4.3203c12.84-25.559 19.559-53.879 19.559-82.441 0-101.76-82.68-184.68-184.44-184.68-19.801 0-39.48 3.2383-58.559 9.7188-50.398-82.559-140.64-133.56-237.6-133.56-153.24 0-277.92 124.68-277.92 277.92 0 5.8789 0.23828 11.762 0.60156 17.762-12.359-2.5195-24.602-3.7188-36.719-3.7188-103.44-0.003906-187.56 84.234-187.56 187.68 0 97.559 79.32 177 176.76 177h193.32c4.9219 0 9-4.0781 9-9s-4.0781-9-9-9h-193.32c-87.48 0-158.76-71.281-158.76-159 0-93.48 76.078-169.56 169.56-169.56 14.641 0 29.52 2.0391 44.398 6.1211 2.8789 0.71875 6 0.12109 8.1602-1.8008 2.2812-1.9219 3.4805-4.9219 3.1211-7.8008-1.0781-9.6016-1.5586-19.199-1.5586-28.441 0-143.4 116.64-259.92 259.92-259.92 93 0 179.52 50.281 225.72 131.16 2.1602 3.8398 6.9609 5.5195 11.039 3.9609 19.32-7.4414 39.238-11.16 59.281-11.16 91.801 0 166.44 74.762 166.44 166.68 0 30.121-8.2812 59.762-24 85.801-1.6797 2.7617-1.6797 6.2383-0.12109 9 1.5586 2.8789 4.5586 4.5586 7.8008 4.5586 63 0.48047 114.24 52.199 114.24 115.2 0 63.602-51.602 115.32-115.08 115.32l-241.44 0.003906c-4.9219 0-9 4.0781-9 9s4.0781 9 9 9h241.32c73.441 0 133.08-59.762 133.08-133.32 0.12109-68.039-51.359-124.56-117.24-132.48z"/>
</svg>
