<svg width="1920" height="227" viewBox="0 0 1920 227" fill="none" xmlns="http://www.w3.org/2000/svg">
<path fill-rule="evenodd" clip-rule="evenodd" d="M-7.5332 119.226L1.83182 112.604L11.1969 105.792L20.5619 98.8447L29.9269 91.8208L39.2919 84.7779L48.657 77.774L58.022 70.8672L67.387 64.1143L76.752 57.5712L86.1171 51.2919L95.4821 45.3283L104.847 39.7296L114.212 34.542L123.577 29.8085L132.942 25.568L142.307 21.8557L151.672 18.7021L161.037 16.1333L170.402 14.1706L179.767 12.8302L189.132 12.123L198.497 12.055L207.862 12.6267L217.227 13.8334L226.592 15.6651L235.958 18.1068L245.323 21.1381L254.688 24.7342L264.053 28.8653L273.418 33.4972L282.783 38.5918L292.148 44.1069L301.513 49.9971L310.878 56.2136L320.243 62.7051L329.608 69.418L338.973 76.2969L348.338 83.285L367.068 97.3573L376.433 104.325L385.798 111.171L395.163 117.838L404.528 124.271L413.893 130.417L423.258 136.225L432.623 141.647L441.988 146.639L451.353 151.159L460.718 155.17L470.083 158.638L479.448 161.536L488.813 163.839L498.178 165.528L507.543 166.589L516.908 167.014L526.273 166.799L535.638 165.945L545.003 164.46L554.368 162.356L563.733 159.651L573.098 156.366L582.464 152.53L591.829 148.173L601.194 143.331L610.559 138.045L619.924 132.358L629.289 126.317L638.654 119.973L648.019 113.376L657.384 106.583L666.749 99.6489L676.114 92.6309L685.479 85.5872L694.844 78.5759L704.209 71.655L713.574 64.8815L722.939 58.3115L732.304 51.9991L741.669 45.9966L751.034 40.3535L760.399 35.1164L769.764 30.3286L779.129 26.0296L788.494 22.2548L797.859 19.0356L807.224 16.3984L816.589 14.365L825.954 12.9523L835.319 12.1719L844.684 12.0302L854.049 12.5285L863.414 13.6625L872.779 15.423L882.144 17.7954L891.509 20.7602L900.874 24.2927L910.239 28.3639L919.604 32.9401L928.969 37.9835L938.335 43.4525L947.7 49.3019L957.065 55.4835L966.43 61.946L975.795 68.6363L985.16 75.499L994.525 82.4774L1013.25 96.5504L1022.62 103.529L1031.98 110.392L1041.35 117.082L1050.71 123.544L1060.08 129.726L1069.44 135.575L1078.81 141.044L1088.18 146.088L1097.54 150.664L1106.91 154.735L1116.27 158.268L1125.64 161.232L1135 163.605L1144.37 165.365L1153.73 166.499L1163.1 166.998L1172.46 166.856L1181.83 166.076L1191.19 164.663L1200.56 162.629L1209.92 159.992L1219.29 156.773L1228.65 152.998L1238.02 148.699L1247.38 143.911L1256.75 138.674L1266.11 133.031L1275.48 127.029L1284.84 120.716L1294.21 114.146L1303.57 107.373L1312.94 100.452L1322.3 93.4406L1331.67 86.3969L1341.03 79.379L1350.4 72.4447L1359.76 65.6514L1369.13 59.0552L1378.49 52.7105L1387.86 46.6698L1397.22 40.9829L1406.59 35.6968L1415.95 30.8552L1425.32 26.4981L1434.68 22.6613L1444.05 19.3767L1453.41 16.6714L1462.78 14.5676L1472.14 13.0828L1481.51 12.2292L1490.87 12.0139L1500.24 12.4387L1509.6 13.5L1518.97 15.1891L1528.33 17.492L1537.7 20.3897L1547.06 23.8583L1556.43 27.8691L1565.79 32.3891L1575.16 37.3808L1584.52 42.8031L1593.89 48.6112L1603.25 54.7571L1612.62 61.19L1621.98 67.8568L1631.35 74.7025L1640.71 81.6705L1659.44 95.7428L1668.81 102.731L1678.17 109.61L1687.54 116.323L1696.9 122.814L1706.27 129.031L1715.63 134.921L1725 140.436L1734.36 145.531L1743.73 150.163L1753.09 154.294L1762.46 157.89L1771.82 160.921L1781.19 163.363L1790.55 165.194L1799.92 166.401L1809.28 166.973L1818.65 166.905L1828.01 166.198L1837.38 164.857L1846.74 162.894L1856.11 160.326L1865.47 157.172L1874.84 153.46L1884.2 149.219L1893.57 144.486L1902.93 139.298L1912.3 133.7L1921.66 127.736L1931.03 121.457L1940.39 114.914L1949.76 108.161L1959.12 101.254L1968.49 94.25L1977.85 87.207L2001.77 67.8568L2018.47 65.6514L2018.47 122.814" fill="url(#paint0_linear_68_1166)"/>
<path d="M102.06 16.5876L1872.55 31.4347L1871.17 196.343L100.677 181.496L102.06 16.5876Z" fill="url(#paint1_diamond_68_1166)" fill-opacity="0.9"/>
<defs>
<linearGradient id="paint0_linear_68_1166" x1="1015.11" y1="2.45399" x2="1016.84" y2="187.726" gradientUnits="userSpaceOnUse">
<stop stop-color="#C0D2FE"/>
<stop offset="0.338542" stop-color="#E5ECF4"/>
<stop offset="1" stop-color="#C0D2FE"/>
</linearGradient>
<radialGradient id="paint1_diamond_68_1166" cx="0" cy="0" r="1" gradientUnits="userSpaceOnUse" gradientTransform="translate(985.013 120.163) rotate(90.4805) scale(79.7388 885.279)">
<stop offset="0.427083" stop-color="#B9CDFE"/>
<stop offset="1" stop-color="#B9CDFE" stop-opacity="0"/>
</radialGradient>
</defs>
</svg>
